<svg width="192" height="59" viewBox="0 0 192 59" fill="none" xmlns="http://www.w3.org/2000/svg">
<g clip-path="url(#clip0_1_58)">
<path d="M20.7698 12.9671L14.051 12.0073C14.0171 12.0024 13.9828 12 13.9484 12C13.6736 12 13.4224 12.1553 13.2995 12.4011L13.1008 12.7984C13.034 12.932 12.9883 13.0752 12.9654 13.2228L8.51482 41.9045C8.50496 41.9681 8.5 42.0323 8.5 42.0967C8.5 42.6361 8.8452 43.1151 9.35698 43.2857L10 43.5L12.5 44L14.5868 44.4174C14.8562 44.4712 15.1037 44.6037 15.298 44.798C15.4313 44.9313 15.5902 45.0361 15.7653 45.1061L17.1376 45.655C17.7109 45.8843 18.3072 46.0512 18.9162 46.1527L19.6991 46.2832C20.5649 46.4275 21.4411 46.5 22.3188 46.5H23.9189C24.9661 46.5 26.0065 46.3312 27 46C27.9935 45.6688 28.9271 45.1797 29.7649 44.5513L30.0056 44.3708C30.3345 44.1241 30.685 43.9075 31.0528 43.7236L31.6883 43.4059C32.2221 43.139 32.8107 43 33.4076 43C34.4272 43 35.405 43.405 36.126 44.126L36.5 44.5C37.1543 45.1543 37.9829 45.6207 38.8807 45.8452C39.2894 45.9474 39.713 46 40.1343 46H41.5L45.7986 45.5224C45.9325 45.5075 46.0644 45.4785 46.1922 45.4359L47.1128 45.1291C47.344 45.052 47.5 44.8356 47.5 44.5919C47.5 44.531 47.5098 44.4706 47.5291 44.4128L47.8177 43.5468C47.9376 43.1872 48.1395 42.8605 48.4076 42.5924C48.7915 42.2085 49.2925 41.9634 49.8313 41.8961L53 41.5H53.5323C54.8096 41.5 56.0524 41.9143 57.0742 42.6806C57.3575 42.8931 57.6593 43.0797 57.9761 43.238L59.5496 44.0248C60.1818 44.3409 60.842 44.5977 61.5217 44.7919C63.1534 45.2581 64.8685 45.3553 66.5424 45.0763L67 45L67.251 44.9372C68.4084 44.6479 69.5074 44.1617 70.5 43.5C71.1295 43.1852 71.8705 43.1852 72.5 43.5L73.4399 43.9699C74.137 44.3185 74.9058 44.5 75.6852 44.5H75.8559C76.2825 44.5 76.7063 44.4312 77.1111 44.2963L77.6646 44.1118C77.8852 44.0383 78.0856 43.9144 78.25 43.75C78.4144 43.5856 78.6148 43.4617 78.8354 43.3882L79.7041 43.0986C79.9001 43.0333 80.1053 43 80.312 43H80.7737C81.2188 43 81.6257 43.2515 81.8248 43.6496C81.9385 43.8771 82.1229 44.0615 82.3504 44.1752L82.5854 44.2927C82.8581 44.429 83.1587 44.5 83.4635 44.5H84.5365C84.8413 44.5 85.1419 44.429 85.4146 44.2927C85.7946 44.1027 86.1027 43.7946 86.2927 43.4146L86.3363 43.3274C86.4447 43.1106 86.5874 42.9126 86.7589 42.7411L86.8163 42.6837C87.2589 42.2411 87.8389 41.9623 88.461 41.8932L92 41.5C92.6247 41.5 93.2082 41.8122 93.5547 42.3321L94 43L95.0199 44.3599C95.3377 44.7835 95.7251 45.1501 96.1658 45.4438C96.7157 45.8104 97.3371 46.0562 97.989 46.1648L99.6668 46.4445C99.8886 46.4814 100.113 46.5 100.338 46.5C100.776 46.5 101.212 46.4293 101.628 46.2906L101.75 46.25C102.247 46.0844 102.714 45.8398 103.132 45.5257L103.315 45.3889C104.094 44.8043 104.727 44.0463 105.163 43.1749L105.5 42.5L105.537 42.4264C105.821 41.8587 106.401 41.5 107.036 41.5C107.34 41.5 107.638 41.5826 107.898 41.7388L110 43L111.5 44L112.745 44.6227C113.909 45.2043 115.152 45.6087 116.435 45.8225C117.144 45.9406 117.861 46 118.58 46H119.114C120.363 46 121.604 45.7986 122.789 45.4035C123.594 45.1353 124.367 44.7799 125.094 44.3435L126.5 43.5L127.085 43.1102C127.668 42.7216 128.388 42.5969 129.067 42.7668C129.667 42.9169 130.19 43.2852 130.533 43.8L130.786 44.1786C130.928 44.3919 131.041 44.6232 131.122 44.8665L131.262 45.2861C131.414 45.7432 131.742 46.1211 132.173 46.3365C132.389 46.4444 132.624 46.5083 132.865 46.5243L139.536 46.9691C139.831 46.9887 140.12 46.8801 140.329 46.6711C140.441 46.5586 140.526 46.4214 140.577 46.2704L140.953 45.142C140.984 45.0474 141.022 44.9553 141.067 44.8662C141.342 44.3164 141.843 43.9142 142.439 43.7651L143.078 43.6056C143.358 43.5355 143.646 43.5 143.935 43.5H144.359C145.089 43.5 145.79 43.7903 146.307 44.3071C146.435 44.4354 146.551 44.576 146.651 44.727L147.054 45.3311C147.351 45.776 147.69 46.1904 148.068 46.5684C148.685 47.1854 149.398 47.6989 150.178 48.0892L150.821 48.4103C150.94 48.47 151.064 48.5212 151.19 48.5634C152.017 48.8389 152.924 48.7174 153.649 48.2342L154 48L156.773 46.1513C156.924 46.0507 157.065 45.9354 157.193 45.8071C157.71 45.2903 158 44.5814 158 43.8506C158 43.2999 158.163 42.7555 158.468 42.2973L158.494 42.2596C158.823 41.7648 159.296 41.3818 159.848 41.161L160.855 40.7582C161.284 40.5866 161.73 40.4617 162.186 40.3857L164.5 40L167.144 39.5593C167.381 39.5198 167.614 39.4619 167.842 39.386C168.601 39.133 169.413 39.0825 170.197 39.2394L171.5 39.5L173.5 40L176.236 40.456C176.412 40.4853 176.59 40.5 176.768 40.5H177.484C178.119 40.5 178.712 40.1827 179.064 39.6544C179.343 39.2354 179.445 38.7226 179.346 38.2287L179 36.5L178.973 36.4203C178.664 35.4927 178.626 34.4961 178.863 33.5475C178.954 33.1836 179.085 32.8307 179.252 32.4952L180 31L181 29L182 27L182.084 26.8743C182.667 25.999 182.855 24.9182 182.599 23.8976C182.533 23.6333 182.439 23.3771 182.317 23.1334L182 22.5L181 21C180.348 20.0219 180 18.8727 180 17.6972V17.5V14.5C180 13.5807 179.481 12.7403 178.658 12.3292L178.553 12.2764C178.189 12.0946 177.788 12 177.382 12H176.815C176.275 12 175.739 12.087 175.227 12.2576L173 13L170.5 13.5L169.713 13.6575C168.574 13.8853 167.415 14 166.253 14H165.518C165.173 14 164.829 13.9755 164.487 13.9268L163.34 13.7629C162.162 13.5946 161.099 12.9651 160.385 12.0129C160.13 11.6727 159.827 11.3705 159.487 11.1153L158.222 10.1662C158.075 10.0561 157.911 9.97042 157.737 9.91238C157.007 9.66891 156.204 9.94443 155.777 10.5851L155.706 10.6914C155.57 10.8952 155.475 11.1235 155.427 11.3637L155.087 13.0654C155.029 13.3544 155 13.6485 155 13.9433C155 14.6382 154.838 15.3236 154.527 15.9452L153.5 18L152.5 20.5C152.169 21.4935 152 22.5339 152 23.5811V24V25V26.191C152 26.3942 151.953 26.5946 151.862 26.7764L151.854 26.7916C151.637 27.2257 151.193 27.5 150.708 27.5C150.57 27.5 150.433 27.4778 150.303 27.4342L149.457 27.1523C149.153 27.0509 148.856 26.928 148.569 26.7846L148.307 26.6533C147.439 26.2197 146.518 25.9037 145.568 25.7135L144.689 25.5378C144.563 25.5127 144.435 25.5 144.307 25.5H144.177C143.743 25.5 143.328 25.3278 143.021 25.0214C142.69 24.6899 142.517 24.232 142.546 23.7641L143 16.5V15.8798C143 15.6366 142.903 15.4034 142.731 15.2314C142.582 15.0818 142.385 14.9885 142.174 14.9674L137.5 14.5H135.663C135.227 14.5 134.797 14.6014 134.407 14.7963L134.196 14.9021C134.066 14.967 133.948 15.0523 133.845 15.1547C133.622 15.3778 133.484 15.6721 133.456 15.9863L133 21L132.696 23.1267C132.571 24.0005 132.08 24.7799 131.346 25.2695C131.116 25.4225 130.867 25.5442 130.606 25.6314L130.497 25.6676C129.844 25.8854 129.145 25.9289 128.469 25.7939L127.903 25.6806C127.314 25.5628 126.773 25.2735 126.349 24.8489C126.118 24.6178 125.851 24.4255 125.559 24.2793L124.807 23.9035C124.271 23.6353 123.706 23.4266 123.125 23.2812L123.057 23.2643C122.355 23.0888 121.634 23 120.91 23H119.823C118.943 23 118.065 23.0869 117.203 23.2594C116.403 23.4195 115.619 23.6525 114.861 23.9556L113.5 24.5L113.259 24.6203C112.094 25.203 111.03 25.9697 110.109 26.8909L110.018 26.9816C109.673 27.3268 109.353 27.696 109.06 28.0865L108.221 29.2052C108.075 29.4003 107.896 29.5691 107.693 29.7044C106.971 30.1862 106.029 30.1862 105.307 29.7044L105.194 29.6293C105.065 29.5433 104.945 29.4448 104.835 29.3351L104.207 28.7071C103.754 28.2544 103.5 27.6403 103.5 27C103.5 26.3597 103.246 25.7456 102.793 25.2929L102.063 24.563C101.69 24.1901 101.26 23.8798 100.788 23.6439L100.527 23.5135C99.8473 23.1736 99.1147 22.9518 98.3606 22.8576L95.5 22.5L94.3117 22.2029C93.7746 22.0686 93.2645 21.843 92.8038 21.5359C92.2732 21.1821 91.8179 20.7268 91.4641 20.1962L91.2973 19.9459C91.0996 19.6494 90.8731 19.3731 90.621 19.121C90.2097 18.7097 89.7347 18.3674 89.2144 18.1072L89.1852 18.0926C88.4058 17.7029 87.5463 17.5 86.6749 17.5H86.3251C85.4537 17.5 84.5942 17.7029 83.8148 18.0926C83.2751 18.3624 82.7825 18.7175 82.3559 19.1441L81.9331 19.5669C81.6463 19.8537 81.4075 20.185 81.2261 20.5479C81.076 20.848 80.9667 21.1667 80.9009 21.4957L80.5 23.5C80.2201 24.6196 79.1102 25.322 77.9785 25.0957L77.7679 25.0536C77.5901 25.018 77.4178 24.9589 77.2557 24.8778L77.0161 24.7581C76.6857 24.5928 76.4344 24.3031 76.3175 23.9526C76.1279 23.3837 75.5955 23 74.9959 23H74.5H72H71.0898C70.366 23 69.6449 23.0888 68.9427 23.2643L68.2272 23.4432C68.0762 23.481 67.9297 23.5351 67.7905 23.6047C67.2844 23.8578 66.6984 23.8995 66.1615 23.7205L65.9222 23.6407C65.6426 23.5475 65.3497 23.5 65.0549 23.5H63.8444C63.2824 23.5 62.7214 23.5464 62.1671 23.6388L61.1945 23.8009C60.4005 23.9333 59.623 24.1508 58.8757 24.4497L58.1594 24.7362C57.7217 24.9113 57.309 25.1433 56.9319 25.4261L55.807 26.2697C55.6077 26.4192 55.3653 26.5 55.1162 26.5C54.7312 26.5 54.3717 26.3076 54.1582 25.9873L53.6561 25.2342C53.5523 25.0784 53.4333 24.9333 53.301 24.801L53.2536 24.7536C52.7622 24.2622 52.1364 23.9273 51.455 23.791L50.6161 23.6232C50.2064 23.5413 49.7895 23.5 49.3717 23.5H47.5H46.5811C45.5339 23.5 44.4935 23.6688 43.5 24L42.9487 24.1838C42.3203 24.3932 41.6623 24.5 41 24.5H39.7808C39.5943 24.5 39.4085 24.5229 39.2276 24.5681L38.9552 24.6362C38.1 24.85 37.5 25.6184 37.5 26.5V28.8374C37.5 29.2732 37.3986 29.7029 37.2037 30.0926L37.089 30.322C37.0301 30.4399 36.9525 30.5475 36.8593 30.6407C36.6292 30.8708 36.3172 31 35.9919 31H35.7815C35.5951 31 35.4098 30.9699 35.233 30.911L34.8889 30.7963C34.3043 30.6014 33.7732 30.2732 33.3374 29.8374L33 29.5L31.6855 27.8569C31.2303 27.2879 30.705 26.7788 30.1221 26.3416C29.3789 25.7842 28.5507 25.3502 27.6693 25.0564L26 24.5L25.4552 24.3638C24.4887 24.1222 23.4962 24 22.5 24H21H20.9636C20.7076 24 20.5 23.7924 20.5 23.5364C20.5 23.5122 20.5019 23.488 20.5057 23.4641L21.9912 14.0556C21.9971 14.0186 22 13.9812 22 13.9437C22 13.6718 21.8464 13.4232 21.6032 13.3016L21.208 13.104C21.0702 13.0351 20.9223 12.9889 20.7698 12.9671Z" fill="#DDFFD9" stroke="#DDFFD9" stroke-width="7"/>
<path d="M15.095 44.2999L8.98732 43.3065C8.5897 43.2196 8.2914 42.8514 8.35002 42.4098L13.2837 12.5457L13.2995 12.4734C13.3785 12.1119 13.7749 11.8576 14.1443 11.9005L21.4527 13.1184L21.525 13.1342C21.9227 13.2211 22.1408 13.6096 22.09 14.0151L20.4244 24.0662C21.8928 23.9325 23.4222 24.0394 24.9404 24.3711C31.8807 25.8873 35.5113 31.1116 34.0898 37.6181C32.6526 44.197 25.8943 47.5682 19.5685 46.1862C18.0142 45.8466 16.523 45.2179 15.095 44.2999ZM19.2696 31.0855L18.0878 38.4018C18.6629 38.7168 19.2254 38.9154 19.8038 39.0418C22.3341 39.5946 24.629 38.2781 25.166 35.82C25.5056 34.2657 25.2835 31.6418 22.3194 30.9943C21.2711 30.7653 20.1518 30.8616 19.2696 31.0855Z" fill="#FC8AF0"/>
<path d="M46.6423 45.2244L39.2795 45.6349C38.8355 45.6351 38.4653 45.3392 38.4651 44.8952L37.4202 25.6557C37.42 25.2117 37.7528 24.8416 38.1598 24.8414L42.4517 24.6174C44.4494 23.9874 46.3733 23.6905 48.2233 23.6897C49.4813 23.6891 50.7023 23.8365 51.8495 24.095C52.4045 24.2427 52.6267 24.5386 52.6269 24.9826C52.6269 25.1306 52.59 25.2787 52.5531 25.4637L51.4825 30.6812C51.3718 31.1992 51.0019 31.4584 50.5579 31.4586C50.4469 31.4587 50.2989 31.4217 50.1508 31.3848C49.5588 31.2001 48.9297 31.0894 48.3007 31.0897C47.7827 31.0899 47.2647 31.1641 46.6728 31.3124L47.3819 44.4101L47.3819 44.4841C47.3821 44.8911 47.0493 45.2242 46.6423 45.2244Z" fill="#FC8AF0"/>
<path d="M79.6271 38.351L78.0291 43.1209C77.794 43.7926 77.478 44.1773 77.0024 44.2493C76.6366 44.3047 73.9872 44.107 71.8977 42.6645C70.1449 43.9402 68.2359 44.6783 66.3701 44.9608C60.2608 45.8856 54.2839 42.0005 53.3922 36.1106C52.7276 31.7206 54.8791 24.921 62.1225 23.8244C63.9517 23.5475 65.8052 23.6786 67.3261 24.0845C67.5068 23.7952 67.8195 23.6356 68.2585 23.5691L68.4414 23.5414L74.8533 23.132C75.8156 23.0612 76.1437 23.498 76.2101 23.937L76.2378 24.1199C76.2296 27.5266 76.1993 30.7868 76.5648 33.2013C76.8971 35.3963 77.5377 36.9085 78.8025 37.3531C79.196 37.4807 79.6316 37.6393 79.687 38.0051C79.6981 38.0783 79.6781 38.1935 79.6271 38.351ZM68.504 37.3031C68.2502 36.3685 68.022 35.3553 67.8503 34.2212C67.7063 33.2701 67.5933 32.2768 67.5004 31.1682C66.9506 30.503 65.8853 30.1404 64.8244 30.301C62.5197 30.6499 61.5771 33.0753 61.8595 34.941C62.1697 36.9897 63.8623 38.5297 66.2402 38.1697C66.9353 38.0645 67.7179 37.7963 68.504 37.3031Z" fill="#FC8AF0"/>
<path d="M125.956 25.4345L124.609 30.0446C124.5 30.4997 124.126 30.9034 123.684 30.9417C123.536 30.9544 123.346 30.8967 123.189 30.7988C122.477 30.3033 121.152 30.0094 119.862 30.1209C118.903 30.2038 115.715 30.7024 116.063 34.7204C116.277 37.1901 118.186 38.6591 120.582 38.4518C122.167 38.3148 123.95 37.455 125.579 35.68C125.781 35.4397 126.097 35.2267 126.429 35.198C126.687 35.1757 126.994 35.2977 127.291 35.7177C128.063 36.9136 128.562 37.5389 129.257 38.7043C129.387 38.916 129.483 39.1676 129.505 39.4257C129.544 39.868 129.394 40.2894 128.99 40.77C126.25 43.8667 122.819 45.426 119.502 45.7129C113.383 46.2421 107.594 42.4347 107.033 35.9469C106.319 27.6898 112.627 23.7646 118.709 23.2386C122.801 22.8848 125.89 24.2517 125.97 25.1732C125.977 25.247 125.986 25.3576 125.956 25.4345Z" fill="#FC8AF0"/>
<path d="M157.057 45.6204L153.339 48.2397C152.909 48.5418 152.531 48.6252 152.199 48.6007C152.052 48.5898 145.318 46.8311 145.871 39.3405C146.201 34.8757 144.252 33.1364 141.595 32.9402L141.41 32.9266L140.421 46.3211C140.388 46.7639 140.032 47.0715 139.626 47.0415L132.246 46.4966C131.803 46.4639 131.496 46.1072 131.528 45.6644L133.757 15.4806C133.787 15.0747 134.147 14.7303 134.589 14.763L141.969 15.3079C142.375 15.3379 142.68 15.7314 142.65 16.1373L141.942 25.7312C142.387 25.727 142.83 25.7597 143.236 25.7897C150.173 26.3019 155.403 30.8434 154.974 38.1577C154.834 40.5589 155.177 42.4393 156.879 44.0119C157.087 44.2127 157.465 44.6117 157.435 45.0176C157.422 45.2021 157.332 45.418 157.057 45.6204Z" fill="#FC8AF0"/>
<g clip-path="url(#clip1_1_58)">
<path d="M172.83 30.7761V29.0751H167.048L174.191 23.2931L173.511 20.912L160.586 29.7558L161.266 18.8712L159.225 19.5518L157.864 31.7976L150.042 38.2588V42H153.103L165.007 31.4562L172.83 30.7761Z" fill="#FC8AF0"/>
<path d="M178.01 12.6193C173.764 13.5948 172.681 17.8921 175.097 20.8368C177.218 20.9728 181.047 16.1906 178.01 12.6193Z" fill="#FC8AF0"/>
<path d="M174.263 30.4673C175.104 31.7039 179.418 31.7647 180.089 28.5326C177.711 26.5949 174.855 27.851 174.263 30.4673Z" fill="#FC8AF0"/>
<path d="M162.142 35.6345C161.98 37.3883 165.853 40.6757 168.884 38.2412C168.176 34.6997 164.64 33.7013 162.142 35.6345Z" fill="#FC8AF0"/>
<path d="M174.74 23.4012C175.109 25.1251 179.789 27.1086 181.958 23.8791C180.224 20.7082 176.548 20.8094 174.74 23.4012Z" fill="#FC8AF0"/>
<path d="M167.117 14.965C165.471 14.1569 160.838 16.7044 162.081 20.5548C165.788 21.1795 168.071 18.1109 167.117 14.965Z" fill="#FC8AF0"/>
<path d="M159.716 18.5996C161.54 17.3541 161.618 10.9826 156.841 10C153.986 13.5186 155.85 17.7342 159.716 18.5996Z" fill="#FC8AF0"/>
<path d="M157.677 27.4877C158.716 25.8949 156.675 20.8033 152.553 21.5981C151.443 25.3384 154.317 28.0752 157.677 27.4877Z" fill="#FC8AF0"/>
<path d="M173.03 32.6321C171.665 34.369 173.509 40.4679 178.36 39.9682C180.024 35.7536 176.978 32.2943 173.03 32.6321Z" fill="#FC8AF0"/>
</g>
<g clip-path="url(#clip2_1_58)">
<path d="M100.136 36.7984C98.0469 36.5325 96.1381 38.01 95.8721 40.0987C95.6062 42.1873 97.0838 44.0961 99.1724 44.362C101.261 44.628 103.17 43.1504 103.436 41.0618C103.702 38.9732 102.224 37.0644 100.136 36.7984ZM100.136 36.7984L101.259 27.9742C101.344 27.3055 101.16 26.6304 100.748 26.0974C100.335 25.5644 99.7277 25.2171 99.059 25.132L95.2772 24.6504M85.9714 27.3085C88.0601 27.5745 89.9688 26.0969 90.2348 24.0083C90.5008 21.9197 89.0232 20.0109 86.9346 19.7449C84.8459 19.479 82.9372 20.9565 82.6712 23.0452C82.4052 25.1338 83.8828 27.0426 85.9714 27.3085ZM85.9714 27.3085L84.0452 42.4358" stroke="#FC8AF0" stroke-width="4" stroke-linecap="round" stroke-linejoin="round"/>
</g>
</g>
<defs>
<clipPath id="clip0_1_58">
<rect width="192" height="59" fill="white"/>
</clipPath>
<clipPath id="clip1_1_58">
<rect width="32" height="32" fill="white" transform="translate(150 10)"/>
</clipPath>
<clipPath id="clip2_1_58">
<rect width="30.4987" height="30.4987" fill="white" transform="translate(79.8525 15) rotate(7.25687)"/>
</clipPath>
</defs>
</svg>
